<mxfile host="app.diagrams.net" modified="2024-07-01T11:48:35.474Z" agent="Mozilla/5.0 (Macintosh; Intel Mac OS X 10_15_7) AppleWebKit/537.36 (KHTML, like Gecko) Chrome/126.0.0.0 Safari/537.36" etag="aohKOA2HUxZjmJecV13o" version="24.6.4" type="github">
  <diagram name="第 1 页" id="wL8as63aZ3v4MmIbQIyB">
    <mxGraphModel dx="1127" dy="784" grid="1" gridSize="10" guides="1" tooltips="1" connect="1" arrows="1" fold="1" page="1" pageScale="1" pageWidth="827" pageHeight="1169" math="0" shadow="0">
      <root>
        <mxCell id="0" />
        <mxCell id="1" parent="0" />
        <mxCell id="xo-haHLwx7_fwL47zmJt-3" style="edgeStyle=orthogonalEdgeStyle;rounded=0;orthogonalLoop=1;jettySize=auto;html=1;exitX=0.5;exitY=1;exitDx=0;exitDy=0;entryX=0.5;entryY=0;entryDx=0;entryDy=0;" edge="1" parent="1" source="xo-haHLwx7_fwL47zmJt-1" target="xo-haHLwx7_fwL47zmJt-2">
          <mxGeometry relative="1" as="geometry" />
        </mxCell>
        <mxCell id="xo-haHLwx7_fwL47zmJt-1" value="开始" style="ellipse;whiteSpace=wrap;html=1;fillColor=none;" vertex="1" parent="1">
          <mxGeometry x="360" y="130" width="120" height="80" as="geometry" />
        </mxCell>
        <mxCell id="xo-haHLwx7_fwL47zmJt-10" style="edgeStyle=orthogonalEdgeStyle;rounded=0;orthogonalLoop=1;jettySize=auto;html=1;exitX=0.5;exitY=1;exitDx=0;exitDy=0;entryX=0.5;entryY=0;entryDx=0;entryDy=0;" edge="1" parent="1" source="xo-haHLwx7_fwL47zmJt-2" target="xo-haHLwx7_fwL47zmJt-7">
          <mxGeometry relative="1" as="geometry" />
        </mxCell>
        <mxCell id="xo-haHLwx7_fwL47zmJt-2" value="报价变更离线处理" style="rounded=0;whiteSpace=wrap;html=1;fillColor=none;" vertex="1" parent="1">
          <mxGeometry x="360" y="250" width="120" height="60" as="geometry" />
        </mxCell>
        <mxCell id="xo-haHLwx7_fwL47zmJt-5" value="结束" style="rounded=1;whiteSpace=wrap;html=1;fillColor=none;" vertex="1" parent="1">
          <mxGeometry x="361" y="860" width="120" height="60" as="geometry" />
        </mxCell>
        <mxCell id="xo-haHLwx7_fwL47zmJt-11" style="edgeStyle=orthogonalEdgeStyle;rounded=0;orthogonalLoop=1;jettySize=auto;html=1;exitX=0.5;exitY=1;exitDx=0;exitDy=0;entryX=0.5;entryY=0;entryDx=0;entryDy=0;" edge="1" parent="1" source="xo-haHLwx7_fwL47zmJt-7" target="xo-haHLwx7_fwL47zmJt-9">
          <mxGeometry relative="1" as="geometry" />
        </mxCell>
        <mxCell id="xo-haHLwx7_fwL47zmJt-7" value="t_sc_task插入数据（包含3个环境）" style="rounded=0;whiteSpace=wrap;html=1;fillColor=none;" vertex="1" parent="1">
          <mxGeometry x="360" y="370" width="120" height="60" as="geometry" />
        </mxCell>
        <mxCell id="xo-haHLwx7_fwL47zmJt-8" value="插入3份一样的数据。其中env分别是3套环境，input是需要更新的tair key/value集合&lt;div&gt;（注意批量操作）&lt;/div&gt;" style="text;html=1;align=center;verticalAlign=middle;whiteSpace=wrap;rounded=0;" vertex="1" parent="1">
          <mxGeometry x="520" y="382.5" width="210" height="57.5" as="geometry" />
        </mxCell>
        <mxCell id="xo-haHLwx7_fwL47zmJt-13" style="edgeStyle=orthogonalEdgeStyle;rounded=0;orthogonalLoop=1;jettySize=auto;html=1;exitX=0.5;exitY=1;exitDx=0;exitDy=0;entryX=0.5;entryY=0;entryDx=0;entryDy=0;" edge="1" parent="1" source="xo-haHLwx7_fwL47zmJt-9">
          <mxGeometry relative="1" as="geometry">
            <mxPoint x="420" y="610" as="targetPoint" />
          </mxGeometry>
        </mxCell>
        <mxCell id="xo-haHLwx7_fwL47zmJt-9" value="t_sc_task表触发精卫&lt;div&gt;（3地都有）&lt;br&gt;&lt;/div&gt;" style="rounded=0;whiteSpace=wrap;html=1;fillColor=none;" vertex="1" parent="1">
          <mxGeometry x="360" y="490" width="120" height="60" as="geometry" />
        </mxCell>
        <mxCell id="xo-haHLwx7_fwL47zmJt-15" style="edgeStyle=orthogonalEdgeStyle;rounded=0;orthogonalLoop=1;jettySize=auto;html=1;exitX=0;exitY=0.5;exitDx=0;exitDy=0;entryX=0;entryY=0.5;entryDx=0;entryDy=0;" edge="1" parent="1" source="xo-haHLwx7_fwL47zmJt-14" target="xo-haHLwx7_fwL47zmJt-5">
          <mxGeometry relative="1" as="geometry">
            <Array as="points">
              <mxPoint x="270" y="645" />
              <mxPoint x="270" y="890" />
            </Array>
          </mxGeometry>
        </mxCell>
        <mxCell id="xo-haHLwx7_fwL47zmJt-17" style="edgeStyle=orthogonalEdgeStyle;rounded=0;orthogonalLoop=1;jettySize=auto;html=1;exitX=0.5;exitY=1;exitDx=0;exitDy=0;entryX=0.5;entryY=0;entryDx=0;entryDy=0;" edge="1" parent="1" source="xo-haHLwx7_fwL47zmJt-14" target="xo-haHLwx7_fwL47zmJt-16">
          <mxGeometry relative="1" as="geometry" />
        </mxCell>
        <mxCell id="xo-haHLwx7_fwL47zmJt-14" value="id对应的t_sc_task数据，&lt;div&gt;env=当前环境？&lt;/div&gt;" style="rhombus;whiteSpace=wrap;html=1;fillColor=none;" vertex="1" parent="1">
          <mxGeometry x="330.5" y="610" width="181" height="70" as="geometry" />
        </mxCell>
        <mxCell id="xo-haHLwx7_fwL47zmJt-18" style="edgeStyle=orthogonalEdgeStyle;rounded=0;orthogonalLoop=1;jettySize=auto;html=1;exitX=0.5;exitY=1;exitDx=0;exitDy=0;entryX=0.5;entryY=0;entryDx=0;entryDy=0;" edge="1" parent="1" source="xo-haHLwx7_fwL47zmJt-16" target="xo-haHLwx7_fwL47zmJt-5">
          <mxGeometry relative="1" as="geometry" />
        </mxCell>
        <mxCell id="xo-haHLwx7_fwL47zmJt-16" value="更新tair中key对应的value" style="rounded=0;whiteSpace=wrap;html=1;fillColor=none;" vertex="1" parent="1">
          <mxGeometry x="361" y="740" width="120" height="60" as="geometry" />
        </mxCell>
      </root>
    </mxGraphModel>
  </diagram>
</mxfile>
